<svg xmlns="http://www.w3.org/2000/svg" style="display: none;">
  <!-- Turns Icon -->
  <symbol id="icon-turns" viewBox="0 0 100 100">
    <circle cx="50" cy="50" r="45" fill="none" stroke="#00ffcc" stroke-width="3" opacity="0.3"/>
    <circle cx="50" cy="50" r="35" fill="none" stroke="#00ffcc" stroke-width="4" opacity="0.5"/>
    <circle cx="50" cy="50" r="25" fill="none" stroke="#00ffcc" stroke-width="5"/>
    <path d="M50 10 L50 25 M50 75 L50 90 M10 50 L25 50 M75 50 L90 50" stroke="#00ffcc" stroke-width="3" stroke-linecap="round"/>
    <circle cx="50" cy="50" r="8" fill="#00ffcc"/>
    <path d="M50 50 L50 30" stroke="#0a0a0f" stroke-width="3" stroke-linecap="round"/>
    <path d="M50 50 L65 50" stroke="#0a0a0f" stroke-width="3" stroke-linecap="round"/>
  </symbol>
  
  <!-- Whisper Icon -->
  <symbol id="icon-whisper" viewBox="0 0 100 100">
    <ellipse cx="50" cy="55" rx="25" ry="30" fill="none" stroke="#00ffcc" stroke-width="3" opacity="0.3"/>
    <circle cx="50" cy="40" r="18" fill="none" stroke="#00ffcc" stroke-width="3"/>
    <circle cx="42" cy="35" r="4" fill="#00ffcc"/>
    <circle cx="58" cy="35" r="4" fill="#00ffcc"/>
    <path d="M40 45 Q50 50 60 45" fill="none" stroke="#00ffcc" stroke-width="2" stroke-linecap="round"/>
    <path d="M20 30 Q15 30 12 25 M15 40 Q10 42 8 38" stroke="#00ffcc" stroke-width="2" fill="none" stroke-linecap="round" opacity="0.6"/>
    <circle cx="12" cy="25" r="2" fill="#00ffcc" opacity="0.6"/>
    <circle cx="8" cy="38" r="2" fill="#00ffcc" opacity="0.6"/>
  </symbol>
  
  <!-- Karma Icon -->
  <symbol id="icon-karma" viewBox="0 0 100 100">
    <circle cx="35" cy="50" r="20" fill="none" stroke="#00ffcc" stroke-width="3"/>
    <circle cx="65" cy="50" r="20" fill="none" stroke="#00ffcc" stroke-width="3"/>
    <path d="M35 50 L65 50" stroke="#00ffcc" stroke-width="3"/>
    <circle cx="35" cy="50" r="8" fill="#00ffcc"/>
    <circle cx="65" cy="50" r="8" fill="#00ffcc"/>
    <path d="M50 20 L50 80" stroke="#00ffcc" stroke-width="3"/>
    <path d="M40 25 L50 20 L60 25" fill="none" stroke="#00ffcc" stroke-width="2" stroke-linecap="round"/>
    <path d="M40 75 L50 80 L60 75" fill="none" stroke="#00ffcc" stroke-width="2" stroke-linecap="round"/>
  </symbol>
  
  <!-- Rumors Icon -->
  <symbol id="icon-rumors" viewBox="0 0 100 100">
    <circle cx="50" cy="50" r="8" fill="#00ffcc"/>
    <circle cx="30" cy="30" r="6" fill="none" stroke="#00ffcc" stroke-width="2"/>
    <circle cx="70" cy="30" r="6" fill="none" stroke="#00ffcc" stroke-width="2"/>
    <circle cx="30" cy="70" r="6" fill="none" stroke="#00ffcc" stroke-width="2"/>
    <circle cx="70" cy="70" r="6" fill="none" stroke="#00ffcc" stroke-width="2"/>
    <path d="M50 50 L30 30 M50 50 L70 30 M50 50 L30 70 M50 50 L70 70" stroke="#00ffcc" stroke-width="2"/>
    <circle cx="50" cy="50" r="25" fill="none" stroke="#00ffcc" stroke-width="2" opacity="0.3" stroke-dasharray="5,5"/>
  </symbol>
  
  <!-- Church Icon -->
  <symbol id="icon-church" viewBox="0 0 100 100">
    <rect x="35" y="45" width="30" height="40" fill="none" stroke="#00ffcc" stroke-width="3"/>
    <path d="M30 45 L50 25 L70 45" fill="none" stroke="#00ffcc" stroke-width="3" stroke-linejoin="round"/>
    <rect x="43" y="60" width="14" height="25" fill="#00ffcc" opacity="0.3"/>
    <path d="M50 15 L50 30 M43 22 L57 22" stroke="#00ffcc" stroke-width="3" stroke-linecap="round"/>
    <circle cx="50" cy="35" r="3" fill="#00ffcc"/>
  </symbol>
  
  <!-- Marketplace Icon -->
  <symbol id="icon-marketplace" viewBox="0 0 100 100">
    <path d="M20 35 L50 20 L80 35" fill="none" stroke="#00ffcc" stroke-width="3" stroke-linejoin="round"/>
    <rect x="25" y="35" width="50" height="45" fill="none" stroke="#00ffcc" stroke-width="3"/>
    <path d="M35 35 L35 50 M50 35 L50 50 M65 35 L65 50" stroke="#00ffcc" stroke-width="2"/>
    <rect x="40" y="60" width="20" height="20" fill="none" stroke="#00ffcc" stroke-width="2"/>
    <circle cx="45" cy="70" r="2" fill="#00ffcc"/>
    <circle cx="55" cy="70" r="2" fill="#00ffcc"/>
  </symbol>
  
  <!-- Alchemy Icon -->
  <symbol id="icon-alchemy" viewBox="0 0 100 100">
    <path d="M40 20 L40 40 L25 70 Q25 80 35 80 L65 80 Q75 80 75 70 L60 40 L60 20 Z" fill="none" stroke="#00ffcc" stroke-width="3"/>
    <ellipse cx="50" cy="30" rx="8" ry="5" fill="none" stroke="#00ffcc" stroke-width="2"/>
    <circle cx="40" cy="55" r="4" fill="#00ffcc" opacity="0.6"/>
    <circle cx="55" cy="60" r="3" fill="#00ffcc" opacity="0.6"/>
    <circle cx="45" cy="65" r="3" fill="#00ffcc" opacity="0.6"/>
    <path d="M45 15 L50 20 L55 15" fill="none" stroke="#00ffcc" stroke-width="2" stroke-linecap="round"/>
  </symbol>
  
  <!-- Forge Icon -->
  <symbol id="icon-forge" viewBox="0 0 100 100">
    <path d="M30 50 L40 30 L60 30 L70 50 L60 70 L40 70 Z" fill="none" stroke="#00ffcc" stroke-width="3"/>
    <rect x="45" y="70" width="10" height="15" fill="#00ffcc" opacity="0.3"/>
    <path d="M20 50 L30 50 M70 50 L80 50" stroke="#00ffcc" stroke-width="3" stroke-linecap="round"/>
    <circle cx="50" cy="50" r="8" fill="none" stroke="#00ffcc" stroke-width="2"/>
    <path d="M50 42 L50 58 M42 50 L58 50" stroke="#00ffcc" stroke-width="2"/>
  </symbol>
  
  <!-- Arena Icon -->
  <symbol id="icon-arena" viewBox="0 0 100 100">
    <circle cx="50" cy="50" r="35" fill="none" stroke="#00ffcc" stroke-width="3"/>
    <path d="M30 30 L50 50 L70 30 M30 70 L50 50 L70 70" stroke="#00ffcc" stroke-width="3" stroke-linecap="round" stroke-linejoin="round"/>
    <circle cx="30" cy="30" r="5" fill="#00ffcc"/>
    <circle cx="70" cy="30" r="5" fill="#00ffcc"/>
    <circle cx="30" cy="70" r="5" fill="#00ffcc"/>
    <circle cx="70" cy="70" r="5" fill="#00ffcc"/>
    <circle cx="50" cy="50" r="8" fill="none" stroke="#00ffcc" stroke-width="3"/>
  </symbol>
  
  <!-- Questing Icon -->
  <symbol id="icon-questing" viewBox="0 0 100 100">
    <rect x="20" y="20" width="60" height="60" fill="none" stroke="#00ffcc" stroke-width="3" rx="3"/>
    <path d="M30 35 L45 50 L70 25" fill="none" stroke="#00ffcc" stroke-width="3" stroke-linecap="round" stroke-linejoin="round"/>
    <circle cx="35" cy="60" r="3" fill="#00ffcc"/>
    <circle cx="50" cy="60" r="3" fill="#00ffcc"/>
    <circle cx="65" cy="60" r="3" fill="#00ffcc"/>
    <path d="M30 30 Q30 25 35 25 L65 25 Q70 25 70 30" fill="none" stroke="#00ffcc" stroke-width="2"/>
  </symbol>
  
  <!-- Hardcore Icon -->
  <symbol id="icon-hardcore" viewBox="0 0 100 100">
    <ellipse cx="50" cy="35" rx="20" ry="25" fill="none" stroke="#00ffcc" stroke-width="3"/>
    <circle cx="42" cy="30" r="5" fill="#00ffcc"/>
    <circle cx="58" cy="30" r="5" fill="#00ffcc"/>
    <path d="M35 45 Q50 50 65 45" fill="none" stroke="#00ffcc" stroke-width="2"/>
    <path d="M30 60 L35 65 L40 60 L45 65 L50 60 L55 65 L60 60 L65 65 L70 60" fill="none" stroke="#00ffcc" stroke-width="2"/>
    <path d="M40 70 L40 80 M60 70 L60 80" stroke="#00ffcc" stroke-width="3" stroke-linecap="round"/>
  </symbol>
  
  <!-- Cyber Eggs Icon -->
  <symbol id="icon-cyber-eggs" viewBox="0 0 100 100">
    <ellipse cx="50" cy="50" rx="25" ry="35" fill="none" stroke="#00ffcc" stroke-width="3"/>
    <path d="M50 15 Q30 30 30 50 Q30 70 50 85" fill="none" stroke="#00ffcc" stroke-width="2" opacity="0.5"/>
    <path d="M50 15 Q70 30 70 50 Q70 70 50 85" fill="none" stroke="#00ffcc" stroke-width="2" opacity="0.5"/>
    <circle cx="50" cy="40" r="4" fill="#00ffcc"/>
    <circle cx="45" cy="50" r="3" fill="#00ffcc" opacity="0.7"/>
    <circle cx="55" cy="55" r="3" fill="#00ffcc" opacity="0.7"/>
    <path d="M40 25 L45 20 M60 25 L55 20 M35 60 L30 65 M65 60 L70 65" stroke="#00ffcc" stroke-width="2" stroke-linecap="round" opacity="0.6"/>
  </symbol>
</svg>
