<svg xmlns="http://www.w3.org/2000/svg" viewBox="0 0 32 32"><rect width="32" height="32" rx="5" fill="#080e10"/><circle cx="16" cy="16" r="12.5" fill="none" stroke="#4ade80" stroke-width="0.5" opacity="0.3"/><line x1="16" y1="3.5" x2="16" y2="8" stroke="#4ade80" stroke-width="1" opacity="0.6"/><line x1="28.5" y1="16" x2="24" y2="16" stroke="#4ade80" stroke-width="1" opacity="0.6"/><line x1="3.5" y1="16" x2="8" y2="16" stroke="#4ade80" stroke-width="1" opacity="0.6"/><line x1="16" y1="28.5" x2="16" y2="24" stroke="#4ade80" stroke-width="1" opacity="0.6"/><circle cx="16" cy="4" r="1.2" fill="#4ade80"/><circle cx="28" cy="16" r="1.2" fill="#4ade80"/><circle cx="4" cy="16" r="1.2" fill="#4ade80"/><circle cx="16" cy="28" r="1.2" fill="#4ade80"/><path d="M16 6.5 C10.5 6.5,6.5 10.5,6.5 16 C6.5 19.8,8.5 23,11.5 24.8 L11.5 21.8 C9.5 20.4,8.5 18.3,8.5 16 C8.5 11.8,11.8 8.5,16 8.5 C17.8 8.5,19.5 9.2,20.8 10.5 L22.8 8.5 C21 6.9,18.6 6.5,16 6.5Z" fill="#4ade80"/><path d="M16 11 C13.2 11,11 13.2,11 16 C11 18.3,12.5 20.2,14.5 21 L14.5 18.2 C13.6 17.5,13 16.8,13 16 C13 14.3,14.3 13,16 13 C16.9 13,17.7 13.4,18.2 14 L20.2 12.5 C19.2 11.6,17.7 11,16 11Z" fill="#080e10"/><path d="M20.8 10.5 L26.5 6.5 L25.5 10.5 L23 12Z" fill="#4ade80"/><path d="M22.5 14.5 L27.5 14.5 L26 17.5 L22.5 16Z" fill="#4ade80" opacity="0.85"/><line x1="25.5" y1="10.5" x2="25.5" y2="14.5" stroke="#080e10" stroke-width="1.8"/><circle cx="16" cy="16" r="1.5" fill="#4ade80" opacity="0.9"/><circle cx="16" cy="16" r="2.5" fill="none" stroke="#4ade80" stroke-width="0.4" opacity="0.4"/></svg>